<svg id="Layer_1" data-name="Layer 1" xmlns="http://www.w3.org/2000/svg" viewBox="0 0 1476.1 1412.98"><defs><style>.cls-1{fill:#e0c13f;}.cls-2{fill:#595a5b;}.cls-3{fill:#c9cfd6;}.cls-4,.cls-6{fill:#ebf0f7;}.cls-5{fill:#969696;}.cls-6{opacity:0.3;}</style></defs><title>zoom</title><path class="cls-1" d="M1365.46,146l-7-19.27-19.39-6.61S678.9,682.88,0,651.11V1413H1014.92C971.23,529.78,1365.46,146,1365.46,146Z"/><path class="cls-2" d="M1423.68,93.85s11.59,26.22-41.88,67.75h0a3.3,3.3,0,0,1-.36-4.43c5.56-7.2,14.06-21.61,6.2-32.92Z"/><path class="cls-2" d="M1386.35,59.08s-27-9.7-64.61,46.58h0a3.31,3.31,0,0,0,4.45,0c6.78-6.06,19.24-14.15,31.07-7.12Z"/><path class="cls-3" d="M1351.42,134c-7.26-6.76-9.8-13-10.62-15.81l-6.74,5.31s1.21,8.22,11,17.34,18.07,9.73,18.07,9.73l4.74-7.11C1365,142.81,1358.62,140.7,1351.42,134Z"/><path class="cls-4" d="M1367.87,143.46l7.18-10.77-24.13-22.47-10.12,8c.82,2.79,3.36,9,10.62,15.81S1365,142.81,1367.87,143.46Z"/><path class="cls-5" d="M1453.67,24.09A77.48,77.48,0,0,1,1443,11.73c-60.87,30.56-92.06,98.49-92.06,98.49a48.69,48.69,0,0,0,9.43,14.06,48.75,48.75,0,0,0,14.7,8.41s65.43-35.88,91.64-98.68A88.33,88.33,0,0,1,1453.67,24.09Z"/><path class="cls-4" d="M1466.69,34a137.47,137.47,0,0,0,9.41-34A137.47,137.47,0,0,0,1443,11.73a77.48,77.48,0,0,0,10.69,12.36A88.33,88.33,0,0,0,1466.69,34Z"/><path class="cls-6" d="M1453,11.8s-33.66,18.76-42.29,44.35-64.56,75.7-64.56,75.7l8,6.92s57.59-58,60.43-81.73,43.6-40.42,43.6-40.42Z"/><path class="cls-6" d="M1459.07,20.25S1427,36.16,1419,63.7c-8.21,28.16-55.39,70.34-55.39,70.34l3.52,2.54s44.93-46.81,54.23-73.46c8.57-24.56,39.06-38.61,39.06-38.61Z"/><circle class="cls-2" cx="1424.2" cy="55.72" r="18.08"/><circle class="cls-4" cx="1424.2" cy="55.72" r="13.47"/></svg>